<?xml version="1.0" standalone="no"?>
<!DOCTYPE svg PUBLIC "-//W3C//DTD SVG 20010904//EN"
 "http://www.w3.org/TR/2001/REC-SVG-20010904/DTD/svg10.dtd">
<svg version="1.0" xmlns="http://www.w3.org/2000/svg"
 width="1024.000000pt" height="1024.000000pt" viewBox="0 0 1024.000000 1024.000000"
 preserveAspectRatio="xMidYMid meet">

<g transform="translate(0.000000,1024.000000) scale(0.100000,-0.100000)"
fill="#000000" stroke="none">
<path d="M5030 9234 c-144 -62 -183 -256 -76 -372 23 -25 60 -53 84 -63 l43
-19 -3 -122 -3 -123 -120 -7 c-412 -23 -855 -165 -1171 -375 l-85 -57 -47 46
c-115 110 -332 266 -538 386 -408 237 -1080 492 -1344 509 -78 5 -88 3 -119
-18 -64 -45 -75 -69 -79 -179 -19 -466 417 -1405 826 -1781 166 -152 390 -260
633 -306 l86 -17 7 -115 c8 -144 24 -181 136 -308 190 -217 418 -381 723 -519
129 -58 137 -63 115 -74 -47 -24 -128 -114 -139 -153 -13 -47 2 -127 38 -209
l25 -57 -44 -68 c-25 -37 -53 -83 -64 -101 -15 -27 -24 -32 -44 -28 -14 3 -56
12 -95 20 -85 19 -156 20 -177 4 -9 -7 -22 -32 -28 -55 -10 -38 -14 -43 -40
-43 -39 0 -97 -51 -105 -93 -13 -64 -15 -67 -49 -67 -77 0 -75 -50 9 -219 l65
-132 -27 -52 c-25 -46 -28 -63 -28 -147 0 -82 4 -103 27 -153 51 -108 157
-197 279 -233 70 -21 221 -21 279 1 91 33 84 40 76 -66 -18 -258 -19 -293 -2
-359 9 -36 26 -85 38 -110 30 -62 122 -152 186 -181 46 -21 54 -29 63 -64 19
-72 89 -193 150 -259 83 -90 166 -131 264 -131 110 1 175 46 236 165 31 60 39
225 15 315 -8 32 -14 60 -13 61 1 1 41 4 88 8 l87 6 5 -30 c4 -16 16 -49 27
-72 l20 -41 -32 -96 c-29 -87 -32 -108 -32 -221 0 -106 3 -133 22 -181 55
-138 187 -211 324 -179 221 52 395 272 467 591 14 59 29 103 41 114 17 15 22
15 76 -1 82 -25 250 -25 324 0 93 31 182 86 250 155 66 68 126 162 117 185 -4
9 -41 15 -129 19 -150 7 -265 34 -375 88 -61 29 -84 45 -87 62 -8 37 -16 197
-11 197 29 0 174 49 226 76 194 102 281 269 250 477 -25 168 -135 426 -296
693 l-75 124 21 42 c36 70 59 149 59 199 0 87 -25 126 -123 190 -66 43 -70 37
60 95 224 101 447 255 610 421 176 180 213 251 213 417 0 39 4 76 8 82 4 7 43
19 87 28 364 75 605 230 840 540 353 468 622 1156 603 1543 -7 148 -49 196
-177 201 -122 6 -313 -43 -619 -157 -530 -198 -964 -437 -1265 -696 l-88 -76
-112 72 c-301 197 -709 323 -1117 347 l-115 7 -3 123 -3 123 38 15 c58 25 98
60 127 114 85 156 -26 340 -204 339 -30 0 -71 -7 -90 -15z m167 -84 c38 -23
73 -86 73 -133 0 -80 -73 -157 -148 -157 -145 0 -197 213 -70 290 42 25 104
26 145 0z m-3381 -211 c79 -14 303 -79 442 -128 520 -184 981 -438 1295 -714
l67 -59 -70 -76 c-79 -83 -125 -154 -116 -177 3 -8 16 -20 30 -26 23 -11 32
-4 148 113 134 136 271 235 446 323 241 121 550 204 876 236 63 6 121 9 128 7
8 -3 13 -23 14 -51 2 -51 16 -77 45 -77 25 0 39 30 39 86 l0 47 103 -7 c581
-40 1079 -256 1388 -604 59 -66 79 -82 98 -80 70 9 44 79 -77 209 l-76 82 49
45 c205 183 466 352 775 501 303 145 717 298 929 341 118 24 133 24 171 5 79
-41 65 -245 -42 -590 -87 -281 -237 -584 -426 -860 -244 -357 -472 -530 -812
-614 -88 -22 -120 -26 -120 -13 0 4 -7 52 -15 107 -8 55 -15 105 -15 111 0 7
42 16 107 23 160 18 264 45 362 96 82 42 158 101 146 113 -3 3 -54 -18 -114
-47 -60 -28 -144 -60 -187 -71 -88 -23 -245 -43 -289 -38 -28 3 -24 6 38 35
96 45 179 128 225 223 36 74 37 77 37 195 0 133 -16 193 -75 284 -16 26 -30
51 -30 54 0 11 112 64 171 81 70 21 89 33 67 41 -22 9 -128 -12 -208 -41 -79
-28 -93 -29 -110 -9 -16 20 10 50 91 106 149 101 392 211 614 276 79 23 125
41 125 50 0 17 -11 16 -107 -2 -157 -30 -369 -111 -533 -205 l-55 -32 60 57
c157 148 490 318 813 415 l92 28 0 -32 c0 -18 -15 -88 -34 -157 -101 -366
-274 -698 -466 -891 -73 -73 -101 -93 -178 -129 -86 -41 -106 -59 -82 -74 19
-11 112 16 185 54 161 83 360 340 483 626 87 200 156 442 168 587 7 75 6 77
-18 88 -20 10 -47 6 -144 -19 -414 -106 -837 -351 -1077 -625 -139 -159 -290
-419 -317 -544 -12 -61 -12 -64 18 -140 93 -235 154 -596 137 -810 -7 -95 -10
-105 -50 -168 -109 -170 -338 -366 -575 -492 -433 -230 -1047 -360 -1482 -312
-430 46 -873 196 -1175 397 -191 127 -391 322 -459 447 -25 45 -28 64 -32 164
-9 225 29 482 103 698 l46 133 -16 67 c-29 125 -144 331 -291 520 -185 239
-492 448 -879 599 -127 49 -314 99 -338 89 -10 -3 -20 -17 -23 -31 -16 -62 39
-305 113 -502 145 -390 360 -681 578 -786 88 -42 137 -52 154 -31 14 17 16 15
-113 87 -278 154 -536 606 -660 1152 -8 36 -3 35 141 -12 221 -73 401 -157
573 -269 86 -55 252 -183 246 -190 -2 -2 -28 12 -57 31 -160 102 -449 211
-583 220 -81 5 -40 -20 117 -71 355 -115 735 -343 629 -376 -10 -4 -49 5 -88
18 -90 32 -194 50 -206 38 -6 -6 11 -18 49 -32 92 -34 193 -82 193 -92 0 -5
-12 -25 -26 -44 -41 -54 -75 -159 -81 -250 -10 -154 42 -284 155 -386 53 -47
125 -88 155 -88 9 0 19 -4 22 -10 9 -14 -64 -13 -166 4 -118 19 -248 60 -343
107 -79 39 -106 47 -106 30 0 -16 96 -80 172 -116 102 -47 203 -73 336 -87 93
-10 111 -14 108 -27 -8 -30 -16 -106 -17 -164 l-2 -59 -45 7 c-75 11 -211 54
-308 96 -273 120 -461 315 -717 746 -224 378 -376 800 -394 1095 l-6 97 31 30
c34 34 42 36 128 20z m5417 -1038 c77 -85 125 -227 114 -334 -10 -95 -44 -166
-111 -232 -66 -64 -158 -120 -181 -111 -26 10 -16 38 26 74 57 49 88 103 104
179 22 104 -9 210 -86 297 l-30 35 47 75 c54 84 56 84 117 17z m-4127 -32 l46
-71 -30 -31 c-114 -118 -110 -325 9 -450 51 -54 55 -62 39 -87 -8 -13 -16 -12
-57 10 -203 107 -282 346 -185 554 32 68 95 146 118 146 8 0 35 -32 60 -71z
m3029 -2208 c28 -16 57 -36 64 -45 16 -19 15 -20 -89 -41 -234 -48 -529 -151
-714 -250 -63 -34 -106 -52 -106 -44 0 7 15 34 33 60 69 101 272 218 527 304
165 55 213 58 285 16z m-1768 -6 c256 -70 448 -194 527 -339 14 -27 25 -50 24
-52 -2 -1 -23 12 -48 29 -125 86 -529 242 -716 276 -31 6 -60 14 -63 17 -10
10 54 58 101 76 58 22 69 22 175 -7z m1128 -93 c-107 -56 -190 -135 -251 -238
-41 -70 -86 -108 -92 -79 -6 26 29 129 60 178 46 72 106 112 217 146 172 52
178 52 66 -7z m-727 19 c85 -27 113 -44 155 -90 43 -48 63 -92 83 -184 17 -83
17 -77 0 -77 -8 0 -18 10 -22 23 -17 55 -79 165 -120 214 -25 29 -72 69 -105
89 -81 51 -81 53 9 25z m1480 -71 c4 -33 -23 -120 -37 -120 -4 0 -29 7 -56 16
-79 27 -275 14 -445 -30 -74 -19 -155 -42 -179 -50 -68 -25 -82 -18 -21 11
151 70 669 219 725 208 6 -1 11 -17 13 -35z m-1993 -17 c152 -42 426 -142 461
-168 10 -8 -19 -1 -66 14 -211 71 -423 99 -512 67 l-37 -13 -20 48 c-21 47
-26 80 -16 91 7 7 75 -7 190 -39z m1860 -174 c44 -31 102 -113 194 -274 97
-170 145 -265 138 -271 -3 -3 -21 2 -41 10 -93 39 -228 38 -310 -1 -20 -9 -38
-15 -40 -12 -2 2 -10 76 -16 164 -7 88 -17 215 -24 283 l-12 122 40 0 c24 0
52 -8 71 -21z m-1849 -21 c-4 -18 -16 -91 -26 -163 -26 -168 -23 -159 -62
-139 -18 10 -67 30 -108 45 -45 16 -74 33 -72 40 5 22 100 153 134 186 31 30
94 61 127 62 10 1 12 -7 7 -31z m194 8 c106 -24 104 -22 86 -93 -20 -78 -20
-195 0 -262 10 -33 30 -69 54 -95 39 -41 66 -44 40 -3 -41 65 -54 105 -58 187
-4 81 9 179 26 208 6 9 55 -2 208 -48 109 -33 207 -60 217 -60 16 0 17 -15 17
-180 0 -169 -1 -180 -19 -180 -37 0 -207 -48 -266 -76 -33 -15 -81 -42 -106
-61 -54 -38 -59 -39 -59 -15 0 30 -60 122 -114 176 -29 28 -83 71 -119 95 -55
35 -66 47 -62 65 3 11 9 50 14 86 26 183 46 280 56 276 6 -2 44 -11 85 -20z
m1484 -31 c3 -30 9 -108 12 -172 l6 -118 -43 -24 c-24 -12 -96 -51 -159 -85
-63 -34 -125 -68 -137 -76 -20 -13 -25 -13 -42 5 -10 11 -52 94 -91 185 -40
91 -77 170 -81 176 -5 6 -21 9 -35 6 -20 -3 -32 -17 -46 -50 -27 -60 -108
-300 -108 -318 0 -10 -15 -14 -59 -14 l-58 0 -7 77 c-3 42 -6 120 -6 173 l0
98 43 11 c253 68 732 178 783 180 18 1 22 -6 28 -54z m-2093 -249 c225 -62
355 -118 487 -209 119 -82 192 -182 210 -287 7 -41 10 -45 40 -48 24 -2 32 1
32 13 0 24 67 83 134 117 167 84 336 112 641 105 222 -5 275 -15 335 -66 40
-34 30 -38 -44 -16 -229 67 -792 2 -973 -113 -43 -27 -59 -51 -25 -37 32 14
207 66 267 80 216 50 578 66 712 32 125 -32 110 -42 -65 -42 -278 0 -599 -46
-925 -131 -145 -38 -163 -34 -285 64 -55 44 -132 99 -171 122 -159 94 -384
178 -618 230 -78 18 -103 27 -103 39 0 23 38 81 52 81 73 -1 363 -93 506 -160
119 -56 274 -156 350 -224 46 -42 52 -45 52 -26 0 26 -110 139 -182 188 -117
80 -392 194 -587 243 -61 15 -74 34 -42 61 32 25 59 23 202 -16z m1552 -22
c16 -41 16 -42 -6 -48 -60 -16 -68 -4 -41 64 18 46 24 44 47 -16z m567 -141
c0 -32 2 -87 5 -123 l4 -65 -59 -54 -60 -54 -20 49 c-26 60 -69 106 -120 129
l-39 17 52 35 c54 37 215 123 229 123 4 0 8 -26 8 -57z m-502 -16 c14 -32 23
-59 21 -61 -2 -2 -46 -2 -97 1 l-94 6 7 35 c15 79 19 83 81 80 l57 -3 25 -58z
m-1761 -112 c176 -52 268 -87 402 -154 110 -54 231 -133 214 -138 -7 -3 -85
34 -175 81 -165 86 -302 143 -505 210 -62 21 -116 42 -119 48 -4 6 1 8 12 4
11 -3 87 -26 171 -51z m2661 4 c83 -28 133 -77 161 -160 33 -99 26 -129 -16
-64 -30 45 -115 108 -183 135 -40 16 -85 24 -162 28 -60 2 -108 8 -108 11 0
11 64 46 105 58 62 18 135 15 203 -8z m-204 -144 c119 -25 203 -92 254 -204
50 -108 30 -214 -56 -304 -70 -73 -129 -90 -84 -24 55 79 75 191 48 266 -22
62 -33 47 -28 -39 4 -75 2 -85 -27 -145 -56 -114 -139 -167 -281 -181 -150
-15 -361 62 -421 153 -24 35 -24 84 -1 112 l17 21 95 -25 c99 -26 155 -32 145
-15 -6 9 -134 72 -173 84 -12 4 -22 11 -22 16 0 17 87 82 150 112 70 34 125
40 230 23 53 -8 54 -7 40 10 -8 10 -34 31 -57 45 l-42 27 28 29 c23 23 78 49
111 53 3 0 36 -6 74 -14z m-2341 -95 c95 -36 97 -40 25 -82 -76 -45 -125 -85
-115 -94 3 -4 47 14 97 40 50 25 102 46 115 46 28 0 105 -68 105 -93 0 -21
-69 -107 -119 -146 -23 -19 -40 -36 -37 -38 10 -10 97 40 145 83 l49 44 12
-35 c16 -47 7 -77 -35 -124 -55 -60 -122 -85 -230 -85 -102 0 -157 18 -231 79
-85 70 -128 209 -90 298 15 37 75 93 120 113 45 19 128 17 189 -6z m1832 -9
c-20 -9 -46 -13 -465 -76 -129 -20 -265 -42 -302 -50 -63 -13 -108 -11 -108 5
0 11 140 37 435 81 86 12 394 46 435 47 22 1 23 0 5 -7z m-1273 -188 c9 -21
32 -96 52 -168 20 -71 43 -151 51 -177 11 -39 12 -48 1 -48 -17 0 -23 15 -91
237 -51 163 -60 213 -36 199 4 -3 15 -22 23 -43z m328 32 c0 -24 -48 -37 -136
-38 -62 -1 -88 3 -109 17 -15 10 -25 19 -23 22 3 2 29 0 59 -6 40 -7 68 -6
109 4 76 19 100 19 100 1z m103 -156 c16 -52 40 -131 54 -176 26 -87 27 -118
3 -118 -10 0 -23 31 -43 100 -53 191 -75 280 -70 288 13 21 30 -8 56 -94z
m-612 -200 c24 -12 111 -62 194 -112 173 -105 257 -137 355 -137 l67 0 6 -112
c3 -62 13 -134 21 -160 13 -43 13 -48 0 -48 -26 0 -254 115 -339 171 -133 87
-347 317 -370 397 -8 28 7 29 66 1z m1294 -10 c-133 -52 -571 -179 -620 -179
-30 0 -10 25 31 38 40 13 502 146 539 155 11 3 38 5 60 5 l40 1 -50 -20z m230
-66 c70 -23 97 -26 217 -27 l137 -1 7 -74 c20 -217 -50 -444 -168 -546 -97
-83 -231 -131 -348 -122 -169 12 -309 115 -310 228 -1 129 169 288 420 393
155 65 158 68 74 63 -182 -11 -480 -202 -556 -359 -24 -50 -31 -56 -65 -62
-56 -9 -168 -7 -196 3 -34 13 -72 131 -72 226 l0 69 40 7 c99 17 407 115 655
208 70 26 70 26 165 -6z m-1381 -300 c109 -90 163 -126 269 -183 53 -28 97
-56 97 -60 0 -16 -51 -49 -103 -67 -81 -27 -189 -24 -257 8 -134 64 -210 208
-210 399 0 106 5 108 72 30 33 -38 92 -95 132 -127z m2021 -97 c50 -13 125
-30 168 -37 42 -6 77 -16 77 -20 0 -17 -106 -93 -170 -122 -71 -33 -166 -45
-262 -33 -79 10 -81 13 -54 81 13 33 29 87 36 120 7 33 14 65 15 71 2 8 20 3
52 -12 26 -13 89 -34 138 -48z m-1515 -201 c56 -29 84 -129 69 -246 -14 -109
-54 -168 -106 -154 -41 10 -106 83 -129 145 -22 58 -44 77 -44 38 0 -38 29
-129 57 -177 l25 -44 -28 7 c-82 21 -214 171 -248 284 -7 21 -4 22 37 22 64 0
164 34 234 79 33 21 64 44 67 50 10 15 32 14 66 -4z m540 -231 c138 -57 277
-55 406 5 37 17 69 29 71 27 8 -8 -58 -191 -95 -260 -33 -62 -155 -207 -166
-196 -2 3 2 34 10 70 18 85 18 135 -1 150 -17 15 -18 12 -35 -75 -32 -163
-119 -247 -185 -180 -33 32 -33 95 0 205 14 46 23 86 20 89 -15 14 -77 -87
-122 -199 -10 -24 -11 -22 -27 29 -26 89 -19 198 21 324 9 29 20 46 27 43 6
-3 40 -17 76 -32z"/>
<path d="M4000 8038 c0 -6 49 -86 109 -177 163 -249 270 -451 416 -778 69
-156 90 -189 101 -160 14 37 -73 261 -201 522 -113 229 -250 445 -359 563 -37
41 -66 54 -66 30z"/>
<path d="M6163 7998 c-127 -131 -313 -448 -446 -759 -54 -127 -110 -297 -103
-316 7 -18 25 -16 33 5 15 42 189 424 233 512 70 140 150 276 248 425 81 123
112 172 112 181 0 17 -34 -5 -77 -48z"/>
<path d="M3790 7249 c-105 -18 -250 -107 -250 -153 0 -26 28 -19 94 22 113 72
217 93 334 68 129 -27 244 -92 364 -204 79 -75 107 -78 51 -7 -158 200 -394
309 -593 274z"/>
<path d="M6255 7246 c-80 -19 -145 -48 -224 -101 -67 -44 -188 -161 -210 -202
-22 -43 12 -25 74 38 156 158 354 239 519 211 65 -10 149 -45 228 -94 30 -18
40 -20 49 -11 29 29 -81 117 -184 148 -74 22 -183 27 -252 11z"/>
<path d="M3828 7085 c-95 -26 -159 -77 -212 -168 -75 -129 -62 -321 31 -465
112 -175 334 -286 507 -252 134 25 217 83 268 187 29 59 32 75 32 152 0 96
-16 156 -71 263 -106 204 -364 336 -555 283z m405 -194 c39 -37 42 -43 42 -91
0 -47 -3 -55 -37 -86 -32 -29 -45 -34 -87 -34 -34 0 -56 6 -75 21 -102 80 -56
229 72 229 36 0 49 -6 85 -39z m-460 -386 c68 -91 185 -174 292 -208 63 -20
67 -22 37 -25 -169 -16 -381 157 -407 333 l-6 40 27 -50 c15 -27 40 -68 57
-90z"/>
<path d="M6215 7089 c-27 -6 -86 -28 -131 -49 -183 -88 -308 -290 -307 -495 0
-104 28 -178 88 -239 55 -55 112 -83 209 -102 63 -13 88 -14 147 -4 138 23
280 120 361 244 118 183 103 431 -34 563 -74 71 -214 106 -333 82z m-38 -193
c28 -31 33 -43 33 -87 0 -46 -4 -55 -39 -90 -35 -35 -44 -39 -90 -39 -44 0
-56 5 -87 33 -47 43 -55 95 -22 151 49 84 144 98 205 32z m358 -313 c-16 -88
-104 -207 -189 -257 -57 -33 -140 -56 -200 -56 l-51 1 70 23 c141 46 283 160
342 273 15 29 30 53 32 53 2 0 0 -17 -4 -37z"/>
<path d="M5000 6479 c-41 -5 -95 -19 -120 -31 -37 -19 -47 -30 -54 -61 -20
-79 56 -169 173 -204 81 -25 194 -20 263 10 187 83 207 240 37 276 -75 16
-213 21 -299 10z m280 -84 c31 -12 13 -13 -165 -13 -179 0 -196 1 -160 13 54
18 278 18 325 0z"/>
<path d="M4695 6110 c-14 -44 78 -128 168 -155 72 -21 119 -19 193 11 l65 26
52 -23 c71 -32 172 -32 243 0 63 27 111 76 120 119 10 49 -17 52 -67 7 -103
-92 -212 -99 -317 -19 l-34 26 -31 -30 c-41 -39 -75 -52 -140 -52 -62 0 -139
33 -181 79 -34 36 -62 40 -71 11z"/>
<path d="M5652 5137 c-7 -8 -6 -18 4 -31 19 -26 18 -80 -2 -117 -19 -38 -12
-47 20 -26 61 41 104 138 76 172 -15 18 -83 20 -98 2z"/>
<path d="M2020 6961 c-14 -52 -52 -97 -95 -113 -43 -15 -44 -24 -6 -31 39 -8
83 -57 102 -115 l16 -47 17 52 c18 55 51 90 95 99 56 12 56 16 6 40 -58 27
-92 65 -101 112 -9 47 -22 48 -34 3z"/>
<path d="M8060 6800 c-6 -11 -14 -46 -18 -77 l-7 -58 -60 -7 c-77 -10 -85 -13
-85 -37 0 -24 28 -41 69 -41 53 0 81 -16 81 -47 0 -43 20 -103 33 -103 24 0
37 24 37 70 0 25 4 51 8 58 5 7 35 17 68 23 33 6 66 14 74 19 32 20 -43 60
-111 60 -31 0 -39 15 -39 76 0 72 -27 107 -50 64z"/>
<path d="M2635 6479 c-272 -42 -544 -112 -657 -171 -143 -74 -208 -177 -151
-240 27 -30 43 -22 43 22 0 122 118 194 460 280 63 15 179 41 258 56 110 21
145 32 153 46 8 15 6 18 -18 17 -15 -1 -55 -5 -88 -10z"/>
<path d="M7526 6348 c-23 -68 -86 -130 -150 -149 -48 -14 -61 -29 -24 -29 36
0 106 -39 137 -77 16 -19 35 -55 41 -80 15 -51 21 -48 44 24 25 75 100 133
174 133 28 0 9 16 -38 33 -83 30 -114 64 -156 175 -8 20 -11 17 -28 -30z m54
-198 l-35 -29 -28 29 c-15 17 -33 30 -39 30 -6 0 6 15 28 34 l39 35 35 -35 35
-35 -35 -29z"/>
<path d="M2374 6110 c-139 -29 -266 -149 -296 -280 l-12 -51 -82 -38 c-88 -42
-148 -94 -171 -150 -17 -40 -10 -91 15 -114 54 -49 185 -68 304 -44 l77 16 57
-34 c68 -41 103 -50 209 -50 65 0 89 5 130 25 106 52 188 171 155 224 -8 13
-9 21 -3 23 6 2 42 25 81 51 132 88 202 167 202 229 0 83 -59 126 -175 127
-45 0 -87 -6 -117 -17 l-47 -18 -38 30 c-78 62 -195 91 -289 71z m190 -81 c87
-45 87 -46 -11 -106 -49 -29 -89 -58 -91 -63 -7 -20 36 -9 118 30 46 23 89 39
97 36 18 -7 33 -49 41 -114 l7 -54 28 22 c22 17 27 29 27 63 0 23 -9 61 -19
84 l-19 41 21 6 c35 9 133 7 162 -4 50 -19 46 -64 -12 -124 -78 -80 -227 -174
-358 -227 -112 -45 -303 -91 -326 -79 -19 11 -53 62 -63 97 -7 22 -6 22 81 16
70 -4 105 -1 170 15 92 23 176 62 225 102 43 37 29 50 -23 21 -106 -60 -314
-96 -429 -74 l-45 9 1 50 c3 109 85 219 197 264 65 25 160 21 221 -11z m-434
-476 l29 -42 -44 -7 c-76 -11 -202 -1 -221 18 -36 36 18 115 116 167 l54 30
19 -62 c11 -34 32 -81 47 -104z m580 33 c0 -26 -46 -81 -94 -111 -48 -29 -54
-30 -165 -30 -171 0 -181 14 -39 54 62 18 149 48 193 66 91 38 105 41 105 21z"/>
<path d="M6900 5850 c-8 -5 -11 -12 -8 -16 4 -3 116 -25 250 -49 420 -74 612
-135 766 -243 72 -50 122 -119 122 -168 0 -17 -11 -48 -26 -69 -42 -62 -13
-88 45 -40 87 74 55 217 -72 313 -146 110 -381 186 -757 246 -189 30 -300 39
-320 26z"/>
<path d="M3296 5605 c-8 -43 -50 -94 -93 -111 -42 -18 -42 -30 1 -38 42 -8 83
-53 92 -101 8 -44 19 -44 34 0 14 41 67 91 109 100 46 10 46 23 0 36 -52 16
-95 59 -110 110 -15 48 -25 50 -33 4z"/>
<path d="M7280 5453 c-8 -3 -32 -19 -52 -35 -49 -39 -76 -121 -59 -179 13 -43
70 -97 112 -106 16 -3 29 -8 29 -10 0 -13 -128 -113 -145 -113 -7 0 -19 -7
-26 -16 -23 -27 15 -47 79 -41 109 11 239 105 286 207 55 117 14 251 -87 289
-30 11 -111 14 -137 4z m127 -83 c8 0 33 -64 33 -85 0 -36 -42 -75 -80 -75
-85 0 -129 80 -80 143 23 29 51 36 95 25 16 -4 31 -8 32 -8z"/>
<path d="M2656 5062 c-12 -19 47 -83 107 -116 115 -64 274 -105 292 -76 12 20
-16 38 -103 65 -106 33 -204 77 -248 110 -36 27 -40 29 -48 17z"/>
<path d="M7805 4997 c-22 -19 -32 -46 -61 -172 -19 -83 -34 -166 -32 -185 3
-31 7 -36 41 -44 25 -7 44 -6 55 0 25 15 162 290 162 324 0 16 -5 40 -11 53
-23 50 -109 63 -154 24z"/>
<path d="M7251 4665 c-64 -41 -176 -89 -256 -110 -66 -17 -108 -41 -102 -58 9
-27 166 10 289 68 68 32 128 86 128 114 0 11 -1 21 -2 21 -2 0 -27 -16 -57
-35z"/>
<path d="M7703 4532 c-27 -4 -63 -47 -63 -74 0 -27 44 -68 73 -68 53 0 90 54
71 105 -8 21 -53 42 -81 37z"/>
<path d="M3015 4171 c-124 -44 -185 -100 -185 -169 0 -64 42 -113 138 -161
100 -50 271 -87 287 -61 12 19 -4 28 -123 69 -130 45 -188 80 -206 123 -22 50
-7 79 60 118 32 20 81 43 109 51 67 20 75 49 13 49 -24 -1 -66 -9 -93 -19z"/>
<path d="M6880 4032 c0 -16 23 -26 128 -56 114 -32 201 -75 236 -116 30 -37
31 -41 11 -79 -17 -35 -137 -99 -242 -130 -120 -36 -81 -63 53 -38 182 35 296
126 278 222 -7 39 -59 92 -122 124 -92 47 -342 100 -342 73z"/>
<path d="M3340 3795 c-18 -22 -8 -50 21 -53 34 -4 54 20 39 47 -12 24 -42 27
-60 6z"/>
<path d="M3502 3788 c-18 -18 -15 -43 9 -64 25 -22 52 -10 57 26 6 38 -40 64
-66 38z"/>
<path d="M6542 2984 c-27 -19 -29 -64 -4 -87 36 -33 87 -15 97 35 6 26 3 35
-15 50 -27 22 -49 23 -78 2z"/>
<path d="M3903 2870 c-39 -16 -56 -77 -33 -120 12 -23 59 -39 94 -33 59 12 78
104 30 142 -28 22 -55 25 -91 11z"/>
<path d="M4222 2594 c-37 -26 -23 -74 23 -74 44 0 63 60 26 80 -25 13 -22 13
-49 -6z"/>
<path d="M4614 2255 c-343 -31 -604 -91 -704 -160 -65 -45 -61 -104 7 -149 42
-28 185 -69 208 -60 30 12 14 32 -42 52 -134 50 -159 93 -78 134 173 89 697
146 1223 135 158 -4 301 -9 319 -12 41 -6 53 12 16 26 -110 43 -644 62 -949
34z"/>
<path d="M5830 2142 c0 -6 26 -16 58 -22 242 -47 378 -90 418 -131 25 -26 25
-28 10 -52 -64 -97 -511 -175 -1108 -193 -192 -6 -248 -14 -205 -29 48 -17
304 -24 525 -15 450 19 769 91 861 195 38 44 39 74 5 115 -37 43 -101 73 -224
105 -115 29 -340 47 -340 27z"/>
<path d="M4870 2049 c-282 -29 -570 -99 -570 -139 0 -14 21 -13 165 14 528 98
917 100 1362 7 140 -30 175 -28 126 7 -58 41 -229 81 -453 107 -146 16 -484
18 -630 4z"/>
<path d="M4605 1865 c-285 -39 -400 -116 -300 -203 59 -53 222 -94 480 -124
168 -18 604 -16 743 5 189 28 283 59 259 84 -4 3 -57 -1 -119 -8 -170 -21
-804 -18 -963 4 -126 17 -258 48 -303 69 -42 21 -34 47 20 69 94 37 242 59
465 70 120 6 222 14 226 19 31 29 -322 40 -508 15z"/>
<path d="M4715 1410 c46 -45 303 -86 480 -77 173 9 345 53 345 87 0 13 -13 13
-155 -5 -150 -19 -354 -19 -510 0 -66 8 -133 15 -150 15 -29 0 -29 0 -10 -20z"/>
<path d="M4963 1207 c-9 -14 91 -50 142 -50 56 -1 151 27 158 47 4 10 -27 12
-145 12 -82 -1 -152 -4 -155 -9z"/>
</g>
</svg>
